<svg width="24" height="25" viewBox="0 0 24 25" fill="none" xmlns="http://www.w3.org/2000/svg">
<path d="M15 23.6041H9C3.57 23.6041 1.25 21.2841 1.25 15.8541V9.85413C1.25 4.42413 3.57 2.10413 9 2.10413H15C20.43 2.10413 22.75 4.42413 22.75 9.85413V15.8541C22.75 21.2841 20.43 23.6041 15 23.6041ZM9 3.60413C4.39 3.60413 2.75 5.24413 2.75 9.85413V15.8541C2.75 20.4641 4.39 22.1041 9 22.1041H15C19.61 22.1041 21.25 20.4641 21.25 15.8541V9.85413C21.25 5.24413 19.61 3.60413 15 3.60413H9Z" fill="#EFF6FF"/>
<path d="M15.58 20.1041C15.17 20.1041 14.83 19.7641 14.83 19.3541V15.4541C14.83 15.0441 15.17 14.7041 15.58 14.7041C15.99 14.7041 16.33 15.0441 16.33 15.4541V19.3541C16.33 19.7641 15.99 20.1041 15.58 20.1041Z" fill="#EFF6FF"/>
<path d="M15.58 9.05413C15.17 9.05413 14.83 8.71413 14.83 8.30413V6.35413C14.83 5.94413 15.17 5.60413 15.58 5.60413C15.99 5.60413 16.33 5.94413 16.33 6.35413V8.30413C16.33 8.71413 15.99 9.05413 15.58 9.05413Z" fill="white"/>
<path d="M15.58 14.2541C13.73 14.2541 12.23 12.7541 12.23 10.9041C12.23 9.05414 13.73 7.55414 15.58 7.55414C17.43 7.55414 18.93 9.05414 18.93 10.9041C18.93 12.7541 17.42 14.2541 15.58 14.2541ZM15.58 9.05414C14.56 9.05414 13.73 9.88414 13.73 10.9041C13.73 11.9241 14.56 12.7541 15.58 12.7541C16.6 12.7541 17.43 11.9241 17.43 10.9041C17.43 9.88414 16.59 9.05414 15.58 9.05414Z" fill="white"/>
<path d="M8.41998 20.1041C8.00998 20.1041 7.66998 19.7641 7.66998 19.3541V17.4041C7.66998 16.9941 8.00998 16.6541 8.41998 16.6541C8.82998 16.6541 9.16998 16.9941 9.16998 17.4041V19.3541C9.16998 19.7641 8.83998 20.1041 8.41998 20.1041Z" fill="white"/>
<path d="M8.41998 11.0041C8.00998 11.0041 7.66998 10.6641 7.66998 10.2541V6.35413C7.66998 5.94413 8.00998 5.60413 8.41998 5.60413C8.82998 5.60413 9.16998 5.94413 9.16998 6.35413V10.2541C9.16998 10.6641 8.83998 11.0041 8.41998 11.0041Z" fill="white"/>
<path d="M8.42001 18.1541C6.57001 18.1541 5.07001 16.6541 5.07001 14.8041C5.07001 12.9541 6.57001 11.4541 8.42001 11.4541C10.27 11.4541 11.77 12.9541 11.77 14.8041C11.77 16.6541 10.27 18.1541 8.42001 18.1541ZM8.42001 12.9541C7.40001 12.9541 6.57001 13.7841 6.57001 14.8041C6.57001 15.8241 7.40001 16.6541 8.42001 16.6541C9.44001 16.6541 10.27 15.8241 10.27 14.8041C10.27 13.7841 9.45001 12.9541 8.42001 12.9541Z" fill="white"/>
</svg>
